<?xml version="1.0" encoding="UTF-8"?>
<svg width="16px" height="16px" viewBox="0 0 16 16" version="1.1" xmlns="http://www.w3.org/2000/svg" xmlns:xlink="http://www.w3.org/1999/xlink">
    <title>Chat</title>
    <g id="Page-1" stroke="none" stroke-width="1" fill="none" fill-rule="evenodd">
        <g id="01.2-Dashboard:-Tab---Layout" transform="translate(-1294.000000, -22.000000)">
            <g id="Chat" transform="translate(1302.000000, 30.000000) scale(1, -1) translate(-1302.000000, -30.000000) translate(1292.000000, 20.000000)">
                <rect id="Size" fill="#D8D8D8" opacity="0" x="0" y="0" width="20" height="20"></rect>
                <path d="M10.228099,17.5 L9.77198471,17.5 C9.27973846,17.5 8.78873398,17.4490666 8.30641544,17.3476202 C7.37623559,17.1511808 6.49266435,16.7677587 5.70612293,16.2192339 C4.53695611,15.4052261 3.62176829,14.2589935 3.07144487,12.9194151 C2.88550604,12.465711 2.74357866,11.994135 2.64773947,11.5115872 C2.45075351,10.5141498 2.45075351,9.48599232 2.64773947,8.48855493 C2.83820755,7.52921313 3.20997447,6.61794116 3.74182524,5.80674098 C4.53108693,4.6009179 5.64247711,3.65703765 6.94133657,3.08946345 C7.38124903,2.89769527 7.83849014,2.75131835 8.30636947,2.65247451 C8.78871507,2.55099058 9.27975063,2.5 9.77203068,2.5 L17.5,2.5 L17.5,9.99997626 C17.5,10.5076548 17.4506146,11.0140527 17.3522523,11.5114924 C17.1617842,12.4708342 16.7900172,13.3821062 16.2581665,14.1933064 C15.4689028,15.3991276 14.3575132,16.3430073 13.0586551,16.9105839 C12.6187427,17.1023521 12.1615016,17.248729 11.6936222,17.3475728 C11.2113203,17.4490316 10.7203314,17.5 10.228099,17.5 Z M6.81875946,10.75 C6.50464228,10.75 6.25,11.0857864 6.25,11.5 C6.25,11.9142136 6.50464228,12.25 6.81875946,12.25 L10.9312405,12.25 C11.2453577,12.25 11.5,11.9142136 11.5,11.5 C11.5,11.0857864 11.2453577,10.75 10.9312405,10.75 L6.81875946,10.75 Z M6.7725009,7.75 C6.48393162,7.75 6.25,8.08578644 6.25,8.5 C6.25,8.91421356 6.48393162,9.25 6.7725009,9.25 L12.4774991,9.25 C12.7660684,9.25 13,8.91421356 13,8.5 C13,8.08578644 12.7660684,7.75 12.4774991,7.75 L6.7725009,7.75 Z" id="Subtraction_3-Copy" fill-opacity="0.4" fill="#000000"></path>
            </g>
        </g>
    </g>
</svg>