<?xml version="1.0" encoding="UTF-8"?>
<svg width="14px" height="17px" viewBox="0 0 14 17" version="1.1" xmlns="http://www.w3.org/2000/svg" xmlns:xlink="http://www.w3.org/1999/xlink">
    <title>Notifications</title>
    <g id="Page-1" stroke="none" stroke-width="1" fill="none" fill-rule="evenodd">
        <g id="01.2-Dashboard:-Tab---Layout" transform="translate(-1339.000000, -22.000000)">
            <g id="Notifications" transform="translate(1336.000000, 20.000000)">
                <rect id="Size" fill="#D8D8D8" opacity="0" x="0" y="0" width="20" height="20"></rect>
                <path d="M10,18.3333333 C10.9166667,18.3333333 11.6666667,17.5833333 11.6666667,16.6666667 L8.33333333,16.6666667 C8.33333333,17.5833333 9.075,18.3333333 10,18.3333333 Z" id="Path" fill-opacity="0.4" fill="#000000"></path>
                <path d="M15,13.3333333 L15,9.16666667 C15,6.60833333 13.6333333,4.46666667 11.25,3.9 L11.25,3.33333333 C11.25,2.64166667 10.6916667,2.08333333 10,2.08333333 C9.30833333,2.08333333 8.75,2.64166667 8.75,3.33333333 L8.75,3.9 C6.35833333,4.46666667 5,6.6 5,9.16666667 L5,13.3333333 L3.925,14.4083333 C3.4,14.9333333 3.76666667,15.8333333 4.50833333,15.8333333 L15.4833333,15.8333333 C16.225,15.8333333 16.6,14.9333333 16.075,14.4083333 L15,13.3333333 Z" id="Path" fill-opacity="0.4" fill="#000000"></path>
            </g>
        </g>
    </g>
</svg>